<?xml version="1.0" encoding="UTF-8" standalone="no"?>
<svg
   xmlns:dc="http://purl.org/dc/elements/1.1/"
   xmlns:cc="http://creativecommons.org/ns#"
   xmlns:rdf="http://www.w3.org/1999/02/22-rdf-syntax-ns#"
   xmlns:svg="http://www.w3.org/2000/svg"
   xmlns="http://www.w3.org/2000/svg"
   version="1.1"
   id="svg2"
   xml:space="preserve"
   width="251.11067"
   height="295.24667"
   viewBox="0 0 251.11067 295.24667"><metadata
     id="metadata8"><rdf:RDF><cc:Work
         rdf:about=""><dc:format>image/svg+xml</dc:format><dc:type
           rdf:resource="http://purl.org/dc/dcmitype/StillImage" /><dc:title></dc:title></cc:Work></rdf:RDF></metadata><defs
     id="defs6"><clipPath
       clipPathUnits="userSpaceOnUse"
       id="clipPath18"><path
         d="M 0,221.435 H 188.333 V 0 H 0 Z"
         id="path16" /></clipPath></defs><g
     id="g10"
     transform="matrix(1.3333333,0,0,-1.3333333,0,295.24667)"><g
       id="g12"><g
         id="g14"
         clip-path="url(#clipPath18)"><g
           id="g20"
           transform="translate(137.2808,163.2216)"><path
             d="m 0,0 c -12.065,9.298 -26.513,14.213 -41.781,14.213 -18.297,0 -35.499,-7.125 -48.437,-20.063 -12.938,-12.938 -20.063,-30.14 -20.063,-48.437 v -10.99 l 46.867,29.137 -9.967,8.189 -23.448,-14.578 c 5.421,25.41 28.044,44.525 55.048,44.525 24.664,0 46.562,-16.231 53.791,-39.662 0.067,-0.217 5.443,1.907 11.449,4.308 C 19.24,-20.234 10.982,-8.464 0,0"
             style="fill:#4d4d4d;fill-opacity:1;fill-rule:nonzero;stroke:none"
             id="path22" /></g><g
           id="g24"
           transform="translate(117.2144,95.915)"><path
             d="m 0,0 14.063,-6.739 19.576,9.536 c -4.821,-26.173 -27.807,-46.061 -55.353,-46.061 -25.923,0 -48.24,17.399 -54.565,42.417 -0.038,0.152 -5.807,-3.29 -10.909,-6.313 4.025,-13.027 11.969,-24.736 22.693,-33.321 12.081,-9.673 27.275,-14.999 42.781,-14.999 18.297,0 35.498,7.125 48.436,20.063 12.939,12.938 20.064,30.14 20.064,48.437 v 9.769 z"
             style="fill:#f15a24;fill-opacity:1;fill-rule:nonzero;stroke:none"
             id="path26" /></g></g></g></g></svg>
